<svg xmlns="http://www.w3.org/2000/svg" width="1280" height="640" viewBox="0 0 1280 640" fill="none" role="img" aria-labelledby="coverTitle coverDesc">
  <title id="coverTitle">Varco - Copilot AI di compliance per vendere in Europa</title>
  <desc id="coverDesc">Cover Varco con layout centrato, palette Replit-inspired</desc>

  <defs>
    <linearGradient id="bgWash" x1="0" y1="0" x2="1280" y2="640" gradientUnits="userSpaceOnUse">
      <stop offset="0%" stop-color="#faf6f1"/>
      <stop offset="50%" stop-color="#f7f2ec"/>
      <stop offset="100%" stop-color="#faf6f1"/>
    </linearGradient>
    <radialGradient id="peachBlob" cx="0" cy="0" r="1" gradientUnits="userSpaceOnUse" gradientTransform="translate(200 580) scale(300)">
      <stop offset="0%" stop-color="#ffb199" stop-opacity="0.45"/>
      <stop offset="100%" stop-color="#ff764c" stop-opacity="0"/>
    </radialGradient>
    <radialGradient id="coralBlob" cx="0" cy="0" r="1" gradientUnits="userSpaceOnUse" gradientTransform="translate(1080 80) scale(260)">
      <stop offset="0%" stop-color="#ff764c" stop-opacity="0.3"/>
      <stop offset="100%" stop-color="#ff3c00" stop-opacity="0"/>
    </radialGradient>
    <linearGradient id="orangeBar" x1="0" y1="0" x2="1" y2="0">
      <stop offset="0%" stop-color="#ff3c00"/>
      <stop offset="100%" stop-color="#ff764c"/>
    </linearGradient>
    <filter id="cardShadow" x="-15%" y="-15%" width="130%" height="130%">
      <feDropShadow dx="0" dy="6" stdDeviation="14" flood-color="#0e0e0f" flood-opacity="0.08"/>
    </filter>
    <pattern id="grid" width="32" height="32" patternUnits="userSpaceOnUse">
      <path d="M32 0H0V32" stroke="#dfddd8" stroke-width="0.75" opacity="0.35"/>
    </pattern>
  </defs>

  <!-- Background -->
  <rect width="1280" height="640" fill="url(#bgWash)"/>
  <rect width="1280" height="640" fill="url(#grid)" opacity="0.3"/>
  <ellipse cx="200" cy="580" rx="300" ry="200" fill="url(#peachBlob)"/>
  <ellipse cx="1080" cy="80" rx="260" ry="180" fill="url(#coralBlob)"/>
  <rect x="0" y="0" width="1280" height="5" fill="url(#orangeBar)"/>

  <!-- Doodles -->
  <g opacity="0.45" stroke-linecap="round">
    <path d="M100 120C150 80 200 150 280 110" stroke="#2492ff" stroke-width="2.5" fill="none"/>
    <circle cx="1180" cy="500" r="36" stroke="#ff764c" stroke-width="2" stroke-dasharray="6 8" fill="none"/>
    <circle cx="220" cy="90" r="3" fill="#ff3c00"/>
    <circle cx="1060" cy="560" r="2.5" fill="#2492ff"/>
  </g>

  <!-- Hero (centered) -->
  <text x="640" y="78" text-anchor="middle" font-family="IBM Plex Sans, system-ui, sans-serif" font-size="44" font-weight="700" fill="#0e0e0f" letter-spacing="-1">Vendi in Europa</text>
  <text x="640" y="124" text-anchor="middle" font-family="IBM Plex Sans, system-ui, sans-serif" font-size="44" font-weight="700" fill="#ff3c00" letter-spacing="-1">senza perderti nella normativa</text>
  <text x="640" y="158" text-anchor="middle" font-family="IBM Plex Sans, system-ui, sans-serif" font-size="15" font-weight="400" fill="#52545a">Catalogo &gt; Classificazione AI &gt; Matrice obblighi &gt; Checklist &gt; Documenti</text>

  <!-- Main cards container: centered block 1136px wide at x=72 -->
  <g transform="translate(72 188)" filter="url(#cardShadow)">
    <!-- Left card -->
    <rect x="0" y="0" width="700" height="360" rx="12" fill="#ffffff" stroke="#dfddd8" stroke-width="1.5"/>

    <text x="350" y="34" text-anchor="middle" font-family="IBM Plex Sans, system-ui, sans-serif" font-size="11" font-weight="600" fill="#898c94" letter-spacing="0.1em">PIPELINE COMPLIANCE</text>

    <!-- 4 pipeline steps centered -->
    <g font-family="IBM Plex Sans, system-ui, sans-serif">
      <!-- step 1 -->
      <g transform="translate(44 52)">
        <rect width="130" height="76" rx="8" fill="#faf6f1" stroke="#dfddd8"/>
        <rect x="51" y="14" width="28" height="28" rx="6" fill="#ff3c00" opacity="0.12"/>
        <path d="M61 28h8M65 24v8" stroke="#ff3c00" stroke-width="2" stroke-linecap="round"/>
        <text x="65" y="58" text-anchor="middle" font-size="12" font-weight="600" fill="#0e0e0f">Catalogo</text>
        <text x="65" y="72" text-anchor="middle" font-size="10" fill="#898c94">Shopify</text>
      </g>
      <path d="M182 90h28" stroke="#cbc7c3" stroke-width="2" stroke-dasharray="4 4"/>
      <polygon points="210,86 218,90 210,94" fill="#cbc7c3"/>
      <!-- step 2 -->
      <g transform="translate(226 52)">
        <rect width="130" height="76" rx="8" fill="#faf6f1" stroke="#dfddd8"/>
        <circle cx="65" cy="28" r="12" fill="#2492ff" opacity="0.14"/>
        <path d="M59 28h12M65 22v12" stroke="#2492ff" stroke-width="2" stroke-linecap="round"/>
        <text x="65" y="58" text-anchor="middle" font-size="12" font-weight="600" fill="#0e0e0f">Classifica</text>
        <text x="65" y="72" text-anchor="middle" font-size="10" fill="#898c94">AI mock</text>
      </g>
      <path d="M364 90h28" stroke="#cbc7c3" stroke-width="2" stroke-dasharray="4 4"/>
      <polygon points="392,86 400,90 392,94" fill="#cbc7c3"/>
      <!-- step 3 -->
      <g transform="translate(408 52)">
        <rect width="130" height="76" rx="8" fill="#faf6f1" stroke="#dfddd8"/>
        <rect x="51" y="14" width="28" height="28" rx="6" fill="#ff764c" opacity="0.15"/>
        <path d="M57 28h16M57 22h10M57 34h14" stroke="#ff764c" stroke-width="2" stroke-linecap="round"/>
        <text x="65" y="58" text-anchor="middle" font-size="12" font-weight="600" fill="#0e0e0f">Matrice</text>
        <text x="65" y="72" text-anchor="middle" font-size="10" fill="#898c94">Lookup</text>
      </g>
      <path d="M546 90h28" stroke="#cbc7c3" stroke-width="2" stroke-dasharray="4 4"/>
      <polygon points="574,86 582,90 574,94" fill="#cbc7c3"/>
      <!-- step 4 -->
      <g transform="translate(590 52)">
        <rect width="66" height="76" rx="8" fill="#faf6f1" stroke="#dfddd8"/>
        <rect x="19" y="14" width="28" height="28" rx="6" fill="#1a9e4a" opacity="0.12"/>
        <path d="M27 28h12M33 22v12" stroke="#1a9e4a" stroke-width="2" stroke-linecap="round"/>
        <text x="33" y="58" text-anchor="middle" font-size="12" font-weight="600" fill="#0e0e0f">PDF</text>
        <text x="33" y="72" text-anchor="middle" font-size="10" fill="#898c94">GPSR</text>
      </g>
    </g>

    <!-- Checklist preview -->
    <text x="350" y="158" text-anchor="middle" font-family="IBM Plex Sans, system-ui, sans-serif" font-size="11" font-weight="600" fill="#898c94" letter-spacing="0.1em">CHECKLIST PER PAESE</text>

    <g transform="translate(40 172)">
      <rect width="620" height="40" rx="8" fill="#faf6f1" stroke="#efefef"/>
      <circle cx="22" cy="20" r="5" fill="#ff3c00"/>
      <text x="40" y="25" font-family="IBM Plex Sans, system-ui, sans-serif" font-size="12" font-weight="500" fill="#312e2e">Fascicolo tecnico GPSR</text>
      <rect x="470" y="12" width="58" height="16" rx="999" fill="rgba(255,60,0,0.08)" stroke="rgba(255,60,0,0.28)"/>
      <text x="499" y="24" text-anchor="middle" font-family="IBM Plex Sans, system-ui, sans-serif" font-size="10" font-weight="600" fill="#ff3c00">critical</text>
      <text x="580" y="25" text-anchor="middle" font-family="IBM Plex Mono, monospace" font-size="10" fill="#898c94">DE</text>
    </g>
    <g transform="translate(40 222)">
      <rect width="620" height="40" rx="8" fill="#faf6f1" stroke="#efefef"/>
      <circle cx="22" cy="20" r="5" fill="#ff764c"/>
      <text x="40" y="25" font-family="IBM Plex Sans, system-ui, sans-serif" font-size="12" font-weight="500" fill="#312e2e">Registrazione EPR imballaggi</text>
      <rect x="478" y="12" width="42" height="16" rx="999" fill="rgba(255,118,76,0.1)" stroke="rgba(255,118,76,0.3)"/>
      <text x="499" y="24" text-anchor="middle" font-family="IBM Plex Sans, system-ui, sans-serif" font-size="10" font-weight="600" fill="#ec4e02">high</text>
      <text x="580" y="25" text-anchor="middle" font-family="IBM Plex Mono, monospace" font-size="10" fill="#898c94">IT</text>
    </g>
    <g transform="translate(40 272)">
      <rect width="620" height="40" rx="8" fill="#faf6f1" stroke="#efefef"/>
      <circle cx="22" cy="20" r="5" fill="#2492ff"/>
      <text x="40" y="25" font-family="IBM Plex Sans, system-ui, sans-serif" font-size="12" font-weight="500" fill="#312e2e">Etichettatura e informazioni prodotto</text>
      <rect x="478" y="12" width="50" height="16" rx="999" fill="rgba(36,146,255,0.1)" stroke="rgba(36,146,255,0.25)"/>
      <text x="503" y="24" text-anchor="middle" font-family="IBM Plex Sans, system-ui, sans-serif" font-size="10" font-weight="600" fill="#2492ff">medium</text>
      <text x="580" y="25" text-anchor="middle" font-family="IBM Plex Mono, monospace" font-size="10" fill="#898c94">FR</text>
    </g>

    <text x="350" y="340" text-anchor="middle" font-family="IBM Plex Sans, system-ui, sans-serif" font-size="12" fill="#898c94">La matrice decide - l&apos;AI non inventa obblighi</text>
  </g>

  <!-- Right card -->
  <g transform="translate(796 188)" filter="url(#cardShadow)">
    <rect x="0" y="0" width="412" height="360" rx="12" fill="#ffffff" stroke="#dfddd8" stroke-width="1.5"/>

    <text x="206" y="34" text-anchor="middle" font-family="IBM Plex Sans, system-ui, sans-serif" font-size="11" font-weight="600" fill="#898c94" letter-spacing="0.1em">MERCATI MVP</text>

    <!-- Country pills centered -->
    <g transform="translate(206 68)" font-family="IBM Plex Sans, system-ui, sans-serif" font-size="12" font-weight="600">
      <g transform="translate(-190 0)">
        <rect x="0" y="0" width="52" height="30" rx="999" fill="#faf6f1" stroke="#dfddd8"/>
        <text x="26" y="20" text-anchor="middle" fill="#312e2e">DE</text>
      </g>
      <g transform="translate(-126 0)">
        <rect x="0" y="0" width="52" height="30" rx="999" fill="#faf6f1" stroke="#dfddd8"/>
        <text x="26" y="20" text-anchor="middle" fill="#312e2e">FR</text>
      </g>
      <g transform="translate(-62 0)">
        <rect x="0" y="0" width="52" height="30" rx="999" fill="rgba(255,60,0,0.1)" stroke="rgba(255,60,0,0.28)"/>
        <text x="26" y="20" text-anchor="middle" fill="#ff3c00">IT</text>
      </g>
      <g transform="translate(2 0)">
        <rect x="0" y="0" width="52" height="30" rx="999" fill="#faf6f1" stroke="#dfddd8"/>
        <text x="26" y="20" text-anchor="middle" fill="#312e2e">ES</text>
      </g>
      <g transform="translate(66 0)">
        <rect x="0" y="0" width="52" height="30" rx="999" fill="#faf6f1" stroke="#dfddd8"/>
        <text x="26" y="20" text-anchor="middle" fill="#312e2e">NL</text>
      </g>
    </g>

    <text x="206" y="130" text-anchor="middle" font-family="IBM Plex Sans, system-ui, sans-serif" font-size="11" font-weight="600" fill="#898c94" letter-spacing="0.1em">PANORAMICA</text>

    <g transform="translate(32 148)">
      <rect width="168" height="80" rx="8" fill="#faf6f1" stroke="#dfddd8"/>
      <text x="84" y="38" text-anchor="middle" font-family="IBM Plex Sans, system-ui, sans-serif" font-size="32" font-weight="700" fill="#0e0e0f">21</text>
      <text x="84" y="58" text-anchor="middle" font-family="IBM Plex Sans, system-ui, sans-serif" font-size="11" fill="#52545a">SKU importati</text>
    </g>
    <g transform="translate(212 148)">
      <rect width="168" height="80" rx="8" fill="#faf6f1" stroke="#dfddd8"/>
      <text x="84" y="38" text-anchor="middle" font-family="IBM Plex Sans, system-ui, sans-serif" font-size="32" font-weight="700" fill="#ff3c00">5</text>
      <text x="84" y="58" text-anchor="middle" font-family="IBM Plex Sans, system-ui, sans-serif" font-size="11" fill="#52545a">Paesi attivi</text>
    </g>

    <g transform="translate(32 248)">
      <rect width="348" height="52" rx="8" fill="#faf6f1" stroke="#dfddd8"/>
      <text x="174" y="22" text-anchor="middle" font-family="IBM Plex Sans, system-ui, sans-serif" font-size="12" font-weight="600" fill="#312e2e">GPSR | EPR | Etichettatura</text>
      <rect x="114" y="32" width="120" height="6" rx="999" fill="#efefef"/>
      <rect x="114" y="32" width="88" height="6" rx="999" fill="url(#orangeBar)"/>
    </g>

    <g transform="translate(32 316)">
      <rect width="348" height="44" rx="8" fill="#ff3c00"/>
      <text x="174" y="28" text-anchor="middle" font-family="IBM Plex Sans, system-ui, sans-serif" font-size="14" font-weight="600" fill="#ffffff">Apri dashboard demo</text>
    </g>
  </g>

</svg>
